<svg width="20" height="20" viewBox="0 0 20 20" fill="none" xmlns="http://www.w3.org/2000/svg">
<path fill-rule="evenodd" clip-rule="evenodd" d="M10 20C15.5228 20 20 15.5228 20 10C20 4.47715 15.5228 0 10 0C4.47715 0 0 4.47715 0 10C0 15.5228 4.47715 20 10 20ZM11 5C11 5.55228 10.5523 6 10 6C9.44771 6 9 5.55228 9 5C9 4.44772 9.44771 4 10 4C10.5523 4 11 4.44772 11 5ZM9 8C9 7.44772 9.44772 7 10 7C10.5523 7 11 7.44772 11 8V15C11 15.5523 10.5523 16 10 16C9.44772 16 9 15.5523 9 15V8Z" fill="black"/>
</svg>
