<svg width="20" height="20" viewBox="0 0 20 20" fill="none" xmlns="http://www.w3.org/2000/svg">
<path fill-rule="evenodd" clip-rule="evenodd" d="M8.80222 4.35222L7.18782 5.12917L5.70777 6.1388L3.47467 5.3022L2.66892 6.6978L4.55744 8.25249L4.42285 9.34231L4.42111 9.35689L4.41489 9.41113C4.40954 9.45916 4.40236 9.52666 4.39523 9.60291C4.37933 9.77301 4.37 9.92155 4.37 10C4.37 10.0785 4.37933 10.227 4.39523 10.3971C4.40236 10.4733 4.40954 10.5408 4.41489 10.5889L4.42111 10.6431L4.42274 10.6568L4.55744 11.7475L2.66892 13.3022L3.47467 14.6978L5.76532 13.8396L6.64185 14.5011L6.6536 14.5099L6.69747 14.5424C6.73638 14.5711 6.79125 14.611 6.85372 14.6553C6.99308 14.7541 7.11706 14.8365 7.185 14.8757C7.25294 14.915 7.38624 14.9811 7.5415 15.0524C7.6111 15.0844 7.67315 15.1119 7.71742 15.1313L7.7675 15.153L7.77907 15.158L7.78017 15.1584L8.79211 15.5872L9.19425 18H10.8057L11.208 15.5867L12.2196 15.1585L12.233 15.1528L12.2828 15.1312C12.3269 15.1119 12.3887 15.0845 12.4582 15.0526C12.6129 14.9816 12.7463 14.9154 12.815 14.8757C12.8837 14.8361 13.0078 14.7536 13.1466 14.6552C13.2089 14.611 13.2636 14.5711 13.3023 14.5426L13.346 14.5102L13.3569 14.5021L14.2342 13.8395L16.5253 14.6978L17.3311 13.3022L15.4426 11.7475L15.5771 10.6577L15.5789 10.6431L15.5851 10.5889C15.5905 10.5408 15.5976 10.4733 15.6048 10.3971C15.6207 10.227 15.63 10.0785 15.63 10C15.63 9.92154 15.6207 9.773 15.6048 9.6029C15.5976 9.52665 15.5905 9.45915 15.5851 9.41112L15.5789 9.35688L15.5773 9.34319L15.4426 8.25248L17.3311 6.69779L16.5253 5.3022L14.2347 6.16036L13.3582 5.4989L13.3464 5.4901L13.3025 5.4576C13.2636 5.42895 13.2088 5.38898 13.1463 5.34468C13.0069 5.24586 12.8829 5.16351 12.815 5.12428C12.7471 5.08505 12.6137 5.01886 12.4585 4.94758C12.3889 4.91563 12.3268 4.88809 12.2826 4.86872L12.2325 4.84698L12.2198 4.84155L11.2079 4.41284L10.8057 2L9.19425 2L8.80222 4.35222ZM13 3C13 3 13.5095 3.21587 13.815 3.39223C14.1205 3.56859 14.5622 3.90192 14.5622 3.90192L16.617 3.13213C17.0747 2.96063 17.5894 3.14522 17.8338 3.56857L19.4867 6.43143C19.7311 6.85478 19.6336 7.39278 19.2562 7.70347L17.5622 9.09807C17.5622 9.09807 17.63 9.64728 17.63 10C17.63 10.3527 17.5622 10.9019 17.5622 10.9019L19.2562 12.2965C19.6336 12.6072 19.7311 13.1452 19.4867 13.5686L17.8338 16.4314C17.5894 16.8548 17.0747 17.0394 16.617 16.8679L14.5622 16.0981C14.5622 16.0981 14.1218 16.4306 13.815 16.6078C13.5082 16.7849 13 17 13 17L12.6393 19.1644C12.5589 19.6466 12.1417 20 11.6529 20H8.34713C7.85829 20 7.4411 19.6466 7.36073 19.1644L7 17C7 17 6.49046 16.7841 6.185 16.6078C5.87954 16.4314 5.43782 16.0981 5.43782 16.0981L3.38303 16.8679C2.92526 17.0394 2.4106 16.8548 2.16618 16.4314L0.513308 13.5686C0.268889 13.1452 0.366358 12.6072 0.743763 12.2965L2.43782 10.9019C2.43782 10.9019 2.37 10.3527 2.37 10C2.37 9.64728 2.43782 9.09808 2.43782 9.09808L0.743764 7.70347C0.366359 7.39278 0.26889 6.85478 0.513309 6.43143L2.16618 3.56857C2.4106 3.14522 2.92526 2.96063 3.38303 3.13213L5.43782 3.90192L6.185 3.39223L7 3L7.36073 0.835601C7.4411 0.353413 7.85829 0 8.34713 0L11.6529 0C12.1417 0 12.5589 0.353413 12.6393 0.835601L13 3ZM17.9851 6.15939L17.9841 6.16016ZM17.9851 13.8406C17.9848 13.8404 17.9845 13.8401 17.9842 13.8398Z" fill="black"/>
<path fill-rule="evenodd" clip-rule="evenodd" d="M10 12C11.1046 12 12 11.1046 12 10C12 8.89543 11.1046 8 10 8C8.89543 8 8 8.89543 8 10C8 11.1046 8.89543 12 10 12ZM10 14C12.2091 14 14 12.2091 14 10C14 7.79086 12.2091 6 10 6C7.79086 6 6 7.79086 6 10C6 12.2091 7.79086 14 10 14Z" fill="black"/>
</svg>
