<svg width="20" height="20" viewBox="0 0 20 20" fill="none" xmlns="http://www.w3.org/2000/svg">
<path fill-rule="evenodd" clip-rule="evenodd" d="M7 3L7.36073 0.835602C7.4411 0.353414 7.85829 0 8.34713 0H11.6529C12.1417 0 12.5589 0.353414 12.6393 0.835602L13 3C13 3 13.5095 3.21587 13.815 3.39223C14.1205 3.56859 14.5622 3.90192 14.5622 3.90192L16.617 3.13213C17.0747 2.96063 17.5894 3.14522 17.8338 3.56857L19.4867 6.43143C19.7311 6.85478 19.6336 7.39278 19.2562 7.70347L17.5622 9.09808C17.5622 9.09808 17.63 9.64728 17.63 10C17.63 10.3527 17.5622 10.9019 17.5622 10.9019L19.2562 12.2965C19.6336 12.6072 19.7311 13.1452 19.4867 13.5686L17.8338 16.4314C17.5894 16.8548 17.0747 17.0394 16.617 16.8679L14.5622 16.0981C14.5622 16.0981 14.1218 16.4306 13.815 16.6078C13.5082 16.7849 13 17 13 17L12.6393 19.1644C12.5589 19.6466 12.1417 20 11.6529 20H8.34713C7.85829 20 7.4411 19.6466 7.36073 19.1644L7 17C7 17 6.49046 16.7841 6.185 16.6078C5.87954 16.4314 5.43782 16.0981 5.43782 16.0981L3.38303 16.8679C2.92526 17.0394 2.4106 16.8548 2.16618 16.4314L0.513308 13.5686C0.268889 13.1452 0.366358 12.6072 0.743763 12.2965L2.43782 10.9019C2.43782 10.9019 2.37 10.3527 2.37 10C2.37 9.64728 2.43782 9.09808 2.43782 9.09808L0.743764 7.70347C0.366359 7.39278 0.268889 6.85478 0.513309 6.43143L2.16618 3.56857C2.4106 3.14522 2.92526 2.96063 3.38303 3.13213L5.43782 3.90192L6.185 3.39223L7 3ZM10 13C11.6569 13 13 11.6569 13 10C13 8.34315 11.6569 7 10 7C8.34315 7 7 8.34315 7 10C7 11.6569 8.34315 13 10 13Z" fill="black"/>
</svg>
