<svg width="20" height="20" viewBox="0 0 20 20" fill="none" xmlns="http://www.w3.org/2000/svg">
<path fill-rule="evenodd" clip-rule="evenodd" d="M3.63604 4.87868C2.46447 6.05025 2.46447 7.94975 3.63604 9.12132L10 15.4853L16.364 9.12132C17.5355 7.94975 17.5355 6.05025 16.364 4.87868L17.7782 3.46447C19.7308 5.41709 19.7308 8.58291 17.7782 10.5355L10.3536 17.9602C10.1583 18.1554 9.84171 18.1554 9.64645 17.9602L2.22182 10.5355C0.269203 8.58291 0.269203 5.41709 2.22182 3.46447C4.17426 1.51204 7.33966 1.51185 9.29233 3.4639C9.29214 3.46371 9.29251 3.46409 9.29233 3.4639L10 4.17157L10.7071 3.46447C12.6597 1.51184 15.8256 1.51184 17.7782 3.46447L16.364 4.87868C15.1924 3.70711 13.2929 3.70711 12.1213 4.87868L10 7L7.87868 4.87868C6.70711 3.70711 4.80761 3.70711 3.63604 4.87868Z" fill="black"/>
</svg>
