<svg width="20" height="20" viewBox="0 0 20 20" fill="none" xmlns="http://www.w3.org/2000/svg">
<path fill-rule="evenodd" clip-rule="evenodd" d="M20 10C20 15.5228 15.5228 20 10 20C4.47715 20 0 15.5228 0 10C0 4.47715 4.47715 0 10 0C15.5228 0 20 4.47715 20 10ZM13 7.5C13 9.15685 11.6569 10.5 10 10.5C8.34315 10.5 7 9.15685 7 7.5C7 5.84315 8.34315 4.5 10 4.5C11.6569 4.5 13 5.84315 13 7.5ZM4 14.9231C4 14.1538 7.58474 13 10 13C12.4153 13 16 14.1538 16 14.9231C16 14.9231 13.975 18 10 18C6.025 18 4 14.9231 4 14.9231Z" fill="black"/>
</svg>
