<svg width="20" height="20" viewBox="0 0 20 20" fill="none" xmlns="http://www.w3.org/2000/svg">
<path fill-rule="evenodd" clip-rule="evenodd" d="M12.7725 17.5065C11.9087 17.8257 10.9747 18 10 18C9.02529 18 8.0913 17.8257 7.22749 17.5065C6.42547 17.2069 5.75383 16.8047 5.2101 16.3982C5.06131 16.287 4.92277 16.1758 4.79458 16.067C4.97998 15.9862 5.18807 15.9039 5.41844 15.822C6.80815 15.3282 8.5819 15 10 15C11.4181 15 13.1918 15.3282 14.5816 15.822C14.8119 15.9039 15.02 15.9862 15.2054 16.067C15.0772 16.1758 14.9387 16.287 14.7899 16.3982C14.2462 16.8047 13.5745 17.2069 12.7725 17.5065ZM16.6016 14.5201C14.9635 13.649 12.1947 13 10 13C7.80525 13 5.03648 13.649 3.39842 14.5201C2.51621 13.2341 2 11.6773 2 10C2 5.58172 5.58172 2 10 2C14.4183 2 18 5.58172 18 10C18 11.6773 17.4838 13.2341 16.6016 14.5201ZM17.992 16.0116C19.2527 14.3383 20 12.2564 20 10C20 4.47715 15.5228 0 10 0C4.47715 0 0 4.47715 0 10C0 12.2564 0.74734 14.3383 2.008 16.0116C3.18713 17.5767 4.81533 18.7844 6.70112 19.4431C7.65686 19.78 8.75692 20 10 20C12.819 20 15.3656 18.8335 17.1834 16.9569C17.673 16.4594 17.9434 16.0814 17.992 16.0116Z" fill="black"/>
<path fill-rule="evenodd" clip-rule="evenodd" d="M10 10C11.1046 10 12 9.10457 12 8C12 6.89543 11.1046 6 10 6C8.89543 6 8 6.89543 8 8C8 9.10457 8.89543 10 10 10ZM10 12C12.2091 12 14 10.2091 14 8C14 5.79086 12.2091 4 10 4C7.79086 4 6 5.79086 6 8C6 10.2091 7.79086 12 10 12Z" fill="black"/>
</svg>
