<svg width="20" height="20" viewBox="0 0 20 20" fill="none" xmlns="http://www.w3.org/2000/svg">
<path d="M3 3C3 2.44772 3.44772 2 4 2H6.5L7.20711 1.29289C7.39464 1.10536 7.649 1 7.91421 1H12.0858C12.351 1 12.6054 1.10536 12.7929 1.29289L13.5 2H16C16.5523 2 17 2.44772 17 3V3C17 3.55228 16.5523 4 16 4H4C3.44772 4 3 3.55228 3 3V3Z" fill="black"/>
<path fill-rule="evenodd" clip-rule="evenodd" d="M6 7L6 17H14V7H6ZM5 5C4.44772 5 4 5.44772 4 6V17C4 18.1046 4.89543 19 6 19H14C15.1046 19 16 18.1046 16 17V6C16 5.44772 15.5523 5 15 5H5Z" fill="black"/>
</svg>
