<svg width="20" height="20" viewBox="0 0 20 20" fill="none" xmlns="http://www.w3.org/2000/svg">
<path fill-rule="evenodd" clip-rule="evenodd" d="M10.669 1.60207C10.2887 1.25979 9.71134 1.25979 9.33103 1.60207L0.968497 9.12835C0.627888 9.4349 0.844737 10 1.30298 10H3V17C3 17.5523 3.44772 18 4 18H8C8.55228 18 9 17.5523 9 17V12H11V17C11 17.5523 11.4477 18 12 18H16C16.5523 18 17 17.5523 17 17V10H18.697C19.1553 10 19.3721 9.4349 19.0315 9.12835L10.669 1.60207ZM15 8.19072L10 3.69072L5 8.19072V16H7V10H13V16H15V8.19072Z" fill="black"/>
</svg>
