<svg width="20" height="20" viewBox="0 0 20 20" fill="none" xmlns="http://www.w3.org/2000/svg">
<path d="M1 5C1 4.44772 1.50368 4 2.125 4H17.875C18.4963 4 19 4.44772 19 5V5C19 5.55228 18.4963 6 17.875 6H2.125C1.50368 6 1 5.55228 1 5V5Z" fill="black"/>
<path d="M8 15C8 14.4477 8.49249 14 9.1 14H17.9C18.5075 14 19 14.4477 19 15V15C19 15.5523 18.5075 16 17.9 16H9.1C8.49249 16 8 15.5523 8 15V15Z" fill="black"/>
<path d="M1 10C1 9.44772 1.50368 9 2.125 9H17.875C18.4963 9 19 9.44772 19 10V10C19 10.5523 18.4963 11 17.875 11H2.125C1.50368 11 1 10.5523 1 10V10Z" fill="black"/>
</svg>
